<?xml version="1.0" encoding="utf-8"?>
<!-- Generator: Adobe Illustrator 17.1.0, SVG Export Plug-In . SVG Version: 6.00 Build 0)  -->
<!DOCTYPE svg PUBLIC "-//W3C//DTD SVG 1.1//EN" "http://www.w3.org/Graphics/SVG/1.1/DTD/svg11.dtd">
<svg version="1.1" id="Layer_1" xmlns="http://www.w3.org/2000/svg" xmlns:xlink="http://www.w3.org/1999/xlink" x="0px" y="0px"
	 viewBox="0 0 200 200" enable-background="new 0 0 200 200" xml:space="preserve">
<path fill="#ED1B77" d="M196.4,45.3c-5-12.5-15-23-28.8-29.5c-12.2-5.8-25.4-6.5-37.4-2.9c-12,3.5-22.7,13.1-30.2,24.2
	c-7.4-11.1-18.2-20.7-30.2-24.2c-12-3.5-25.2-2.8-37.4,2.9c-13.8,6.5-23.8,17-28.8,29.5c-5,12.5-5,27,1.3,41.5
	c13.4,30.9,94.7,103.4,95.1,104.6c0.4-1.2,81.7-73.7,95.1-104.6C201.4,72.3,201.4,57.8,196.4,45.3z"/>
<path fill="#ED1B77" d="M145,25.7c5.6,0,11,1.2,16.1,3.7c10.1,4.7,17.6,12.4,21.3,21.5c3.7,9.4,3.4,19.7-1.1,29.9
	c-2.3,5.2-10.2,18.2-37.8,47c-16.1,16.8-33,32.8-43.6,42.8c-10.6-10-27.5-26-43.6-42.8C28.8,99,20.9,85.9,18.6,80.7
	c-4.4-10.2-4.8-20.6-1.1-29.9c3.6-9.1,11.2-16.8,21.3-21.5c5.1-2.4,10.6-3.7,16.1-3.7c3.6,0,7.2,0.5,10.6,1.5
	c7.6,2.2,15.8,9,21.9,18.1L100,64l12.5-18.6c6.1-9.1,14.3-15.9,21.9-18.1C137.9,26.2,141.5,25.7,145,25.7 M145,10.7
	c-5.1,0-10.1,0.7-14.9,2.1c-12,3.5-22.7,13.1-30.2,24.2c-7.4-11.1-18.2-20.7-30.2-24.2C65,11.4,60,10.7,55,10.7
	c-7.5,0-15.2,1.6-22.5,5.1c-13.8,6.5-23.8,17-28.8,29.5c-5,12.5-5,27,1.3,41.5c13.4,30.9,94.7,103.4,95.1,104.6
	c0.4-1.2,81.7-73.7,95.1-104.6c6.3-14.4,6.3-29,1.3-41.5c-5-12.5-15-23-28.8-29.5C160.2,12.3,152.6,10.7,145,10.7L145,10.7z"/>
</svg>
