<?xml version="1.0" standalone="no"?>
<!DOCTYPE svg PUBLIC "-//W3C//DTD SVG 1.1//EN" "http://www.w3.org/Graphics/SVG/1.1/DTD/svg11.dtd" >
<svg xmlns="http://www.w3.org/2000/svg" xmlns:xlink="http://www.w3.org/1999/xlink" version="1.1">
<metadata>
Created by FontForge 20160407 at Tue Jul 19 09:16:33 2016
 By Jimmy Wärting
</metadata>
<defs>
<font id="Entypo" horiz-adv-x="1024" >
  <font-face 
    font-family="Entypo"
    font-weight="400"
    font-stretch="normal"
    units-per-em="1024"
    panose-1="0 0 0 0 0 0 0 0 0 0"
    ascent="960"
    descent="-64"
    bbox="-145 -64.0625 1027.52 1175"
    underline-thickness="0"
    underline-position="0"
    unicode-range="U+0001-FFFD"
  />
<missing-glyph horiz-adv-x="0" 
 />
    <glyph glyph-name=".notdef" unicode="&#xfffd;" horiz-adv-x="0" 
 />
    <glyph glyph-name="glyph1" horiz-adv-x="0" 
d="M0 0v0v0v0z" />
    <glyph glyph-name="glyph1" horiz-adv-x="0" 
d="M0 0v0v0v0z" />
    <glyph glyph-name="uni0001" horiz-adv-x="0" 
d="M0 0v0v0v0z" />
    <glyph glyph-name="space" unicode=" " horiz-adv-x="512" 
d="M0 0v0v0v0z" />
    <glyph glyph-name="uniE600" unicode="&#xe600;" 
d="M505 957q-102 -2 -192 -42t-156.5 -108.5t-104 -159t-36.5 -193.5q2 -103 42 -192.5t108 -156t159 -104t194 -36.5q102 1 192 41.5t156.5 108.5t104 159t36.5 193q-2 103 -42 193t-108 156t-159 104t-194 37v0zM560 791q38 0 52 -18.5t14 -43.5q0 -32 -24 -56.5
t-67 -24.5q-36 0 -53 17t-16 47q0 25 22.5 52t71.5 27v0zM431 151q-26 0 -40 22t5 91l39 163q5 19 5.5 27.5t-5.5 8.5q-8 0 -35 -11t-46 -25l-18 29q63 52 127 81.5t95 29.5q26 0 31 -28.5t-8 -75.5l-46 -171q-5 -23 -3.5 -32t7.5 -9q8 0 30 9.5t47 29.5l20 -26
q-61 -61 -120 -87t-85 -26v0z" />
    <glyph glyph-name="uniE601" unicode="&#xe601;" 
d="M864 960q-66 0 -113 -47t-47 -113v-480h128v-384h192v864q0 66 -47 113t-113 47v0zM416 960q-13 0 -22.5 -9.5t-9.5 -22.5v-224q0 -7 -9.5 -11.5t-22.5 -4.5t-22.5 4.5t-9.5 11.5v224q0 13 -9.5 22.5t-22.5 9.5t-22.5 -9.5t-9.5 -22.5v-224q0 -7 -9.5 -11.5t-22.5 -4.5
t-22.5 4.5t-9.5 11.5v224q0 13 -9.5 22.5t-22.5 9.5t-22.5 -9.5t-9.5 -22.5v-224q0 -7 -9.5 -11.5t-22.5 -4.5t-22.5 4.5t-9.5 11.5v224q0 13 -9.5 22.5t-22.5 9.5t-22.5 -9.5t-9.5 -22.5v-288q0 -21 16 -35t37 -29q26 -19 50.5 -46.5t24.5 -81.5v-512h192v512
q0 54 24.5 81.5t50.5 46.5q21 15 37 29t16 35v288q0 13 -9.5 22.5t-22.5 9.5v0z" />
    <glyph glyph-name="uniE602" unicode="&#xe602;" 
d="M788 348q-1 17 -7 34t-16 34t-26 33t-37 32q-21 15 -51 28.5t-70 23.5l-14 4l-14 4q-6 1 -12.5 2.5t-13.5 3.5v188q18 0 33.5 -7.5t28.5 -22.5q12 -15 19 -33t7 -39h151q-2 27 -8 51t-16 44t-23 37t-28 31q-16 13 -34.5 23.5t-39.5 18.5t-43.5 13t-46.5 8v81h-62v-81
q-24 -2 -47 -6.5t-46 -12.5q-22 -8 -41.5 -18.5t-36.5 -24.5q-17 -15 -30.5 -32t-23.5 -38q-11 -20 -16 -44t-5 -51t4.5 -49t13.5 -40q9 -17 21 -32t27 -27t32 -21.5t37 -16.5q18 -7 37.5 -13.5t39.5 -11.5q5 -1 10 -2.5t10 -2.5q4 -1 7.5 -2.5t6.5 -2.5v-221
q-25 5 -45.5 16t-36.5 28q-16 18 -24 41.5t-8 54.5h-149q5 -63 24.5 -110.5t52.5 -79.5q34 -32 80 -50.5t106 -22.5v-90h62v90q40 2 72.5 10.5t58.5 21.5q25 13 45.5 28t35.5 32t25.5 34.5t16.5 35.5q5 17 8 32t3 26q0 13 -1 28.5t-3 32.5v0zM465 562q-26 6 -44 13.5
t-29 17.5q-11 9 -17 22.5t-6 31.5q0 11 2 20.5t6 17.5t9.5 15t12.5 13q7 5 14.5 9.5t16.5 6.5q8 3 17 4.5t18 1.5v-173v0zM631 250q-5 -10 -12 -17.5t-15 -13.5q-8 -7 -17.5 -12t-19.5 -8q-10 -4 -20 -6t-20 -3v203q31 -8 53.5 -17.5t35.5 -19.5q13 -11 19.5 -26.5
t6.5 -35.5q0 -13 -3 -24t-8 -20v0z" />
    <glyph glyph-name="uniE603" unicode="&#xe603;" horiz-adv-x="655" 
d="M239 651q2 0 4 1t4 3l69 71v-356q0 -5 3 -8.5t8 -3.5t8 3.5t3 8.5v356l70 -71q1 -1 3 -2.5t4 -1.5q5 0 8 3.5t3 7.5q0 3 -0.5 5t-1.5 4l-88 90l-4 2t-5 1q-2 0 -4 -1t-3 -3l-88 -90q-2 -1 -2.5 -3.5t-0.5 -4.5q-1 -5 2 -8t8 -3v0z" />
    <glyph glyph-name="uniE604" unicode="&#xe604;" horiz-adv-x="655" 
d="M537 584h-143q-5 0 -8 -3.5t-3 -7.5q0 -5 3 -8.5t8 -3.5h144v-405h-420v405h143q5 0 8.5 3t3.5 8t-3.5 8t-8.5 3h-143q-9 0 -16 -6.5t-7 -15.5v-406q0 -9 7 -15.5t16 -6.5h419q9 0 15.5 6.5t6.5 15.5v406q0 9 -6.5 16t-15.5 7v0z" />
    <glyph glyph-name="uniE605" unicode="&#xe605;" horiz-adv-x="655" 
d="M574 566l-0.5 0.5l-0.5 0.5q-2 12 -10.5 20.5t-19.5 11.5h-1.5h-1.5h-147v0v0q-11 0 -18.5 -8t-7.5 -19t8 -18.5t19 -7.5h4t4 1h98v-1.5v-0.5h22v-373h-22v0v-1h-347v1v0h-21v373h21v0.5v0.5h101h2.5h2.5q12 0 20 7.5t8 18.5q0 12 -8 19.5t-20 7.5h-2.5h-2.5h-137v0v0
q-14 -1 -24.5 -9.5t-12.5 -21.5q-1 -1 -1 -1.5v-0.5v-402q0 -1 0.5 -1.5t0.5 -1.5v-2v-3q0 -15 10.5 -26t25.5 -12v0v0h430q1 0 2 0.5t1 2.5q11 4 18 13.5t7 21.5q0 2 -0.5 3.5t-0.5 2.5l0.5 0.5t0.5 1.5v402v0z" />
    <glyph glyph-name="uniE606" unicode="&#xe606;" 
d="M791 126h-141.5h-141.5h-141.5h-141.5q-8 3 -11 9t-2 15v13v14q0 3 1 5t3 4q53 44 105.5 87.5t104.5 87.5q1 0 2.5 1t2.5 2q23 -28 46.5 -55t47.5 -55q35 28 69.5 56t68.5 55q7 -7 13 -14.5t12 -15.5q5 26 10 51t10 51h-51h-51q6 -8 11.5 -14.5t10.5 -13.5
q-24 -20 -48 -39t-48 -39q-24 28 -47.5 55.5t-47.5 55.5q-56 -47 -112 -93.5t-113 -93.5v5v3v94v94q0 3 -0.5 6.5t-0.5 6.5q-2 6 -6 10t-10 4q-8 1 -13 4.5t-8 9.5v16v15q2 8 6.5 14t10.5 12q36 30 72.5 60l73 60t73 60.5t72.5 60.5q5 4 10 7.5t11 7.5h5h5q4 -3 7.5 -5
t7.5 -5q28 -23 56 -46.5t56 -46.5q2 -2 5.5 -2.5t6.5 -2.5q1 3 2.5 6t1.5 6v23v22t5.5 16t15.5 5h25h25t17 -5t5 -16v-59.5v-59.5q0 -12 4.5 -21.5t13.5 -17.5q14 -11 28 -22.5t27 -22.5q7 -6 12.5 -12.5t7.5 -15.5v-15v-16q-3 -6 -8 -9.5t-13 -4.5q-6 0 -10 -4t-6 -10
q0 -3 -0.5 -6.5t-0.5 -6.5v-150.5v-150.5q0 -9 -2.5 -15t-10.5 -9v0z" />
    <glyph glyph-name="uniE607" unicode="&#xe607;" 
d="M284 382h-8v-35h7q11 0 16.5 4.5t5.5 14.5q0 8 -5.5 12t-15.5 4v0zM807 559h-595q-14 0 -24.5 -9.5t-10.5 -22.5v-364q0 -14 10.5 -23.5t24.5 -9.5h595q14 0 22.5 9.5t8.5 23.5v364q0 13 -8.5 22.5t-22.5 9.5v0zM318 261l-32 55h-10v-55h-42v152h50q31 0 47 -11.5
t16 -33.5q0 -13 -6.5 -23.5t-19.5 -17.5l44 -66h-47v0zM469 380h-49v-24h46v-33h-46v-29h49v-33h-90v152h90v-33v0zM646 261h-54l-56 107h-1q1 -13 1.5 -22.5t0.5 -16.5v-68h-37v152h54l56 -106v0q0 12 -0.5 21t-0.5 16v69h37v-152v0zM787 379h-37v-118h-41v118h-37v34h115
v-34v0zM327 586h23l147 143q2 -1 5 -1.5t6 -0.5t6 0.5t5 1.5l147 -143h46l-169 164q1 4 1.5 7t0.5 7q0 15 -11 26t-26 11t-26 -11t-11 -26q0 -4 0.5 -7t1.5 -7l-169 -164h23v0z" />
    <glyph glyph-name="uniE608" unicode="&#xe608;" horiz-adv-x="655" 
d="M502 172h22v20q-8 -2 -13.5 -7.5t-8.5 -12.5v0z" />
    <glyph glyph-name="uniE609" unicode="&#xe609;" 
d="M508 474q-46 0 -89 5t-84 14.5t-78 23t-70 30.5q-1 -1 -1 -2v-3v-305q0 -19 13.5 -32.5t32.5 -13.5h552q19 0 32.5 13.5t13.5 32.5v305q0 2 -0.5 3t-0.5 2q-33 -17 -70.5 -30.5t-78 -23t-84 -14.5t-88.5 -5v0zM798 666h-152v59q0 6 -4.5 10.5t-10.5 4.5h-246
q-6 0 -10.5 -4.5t-4.5 -10.5v-59h-152q-17 0 -30 -26.5t-15 -65.5q34 -19 72.5 -34t81 -25.5t88 -16t93.5 -5.5t93.5 5.5t88 16t81 25.5t72.5 34q-2 39 -15 65.5t-30 26.5v0zM602 666h-186v21q0 6 4.5 10.5t10.5 4.5h156q6 0 10.5 -4.5t4.5 -10.5v-21v0z" />
    <glyph glyph-name="uniE60A" unicode="&#xe60a;" horiz-adv-x="1030" 
d="M806 246q-28 0 -52.5 -10t-42.5 -28l-347 204q2 9 3.5 17t1.5 18t-1.5 18t-3.5 17l342 201q20 -18 45.5 -28.5t54.5 -10.5q60 0 102.5 43t42.5 104t-42.5 104t-102.5 43q-61 0 -103.5 -43t-42.5 -104q0 -9 1 -17.5t3 -17.5l-342 -202q-20 18 -45.5 28.5t-53.5 10.5
q-60 0 -103 -43t-43 -104t43 -104t103 -43q28 0 53.5 10t45.5 29l347 -204q-3 -8 -4 -15.5t-1 -16.5q0 -59 41.5 -101t100.5 -42t100 42t41 101t-41 101.5t-100 42.5v0z" />
    <glyph glyph-name="uniE61B" unicode="&#xe61b;" 
d="M880 748q-32 29 -72.5 43.5t-82.5 14.5t-82.5 -14.5t-72.5 -43.5l-58 -54l-58 54q-32 29 -72.5 43.5t-82.5 14.5t-82.5 -14.5t-72.5 -43.5q-36 -34 -54 -75.5t-18 -85t18 -85t54 -75.5l368 -337l368 337q36 34 54 75.5t18 85t-18 85t-54 75.5v0zM826 480l-314 -293
l-314 293q-23 22 -33 49.5t-10 58.5q0 30 7.5 55t30.5 47q21 19 48.5 29.5t57.5 10.5t57.5 -15.5t47.5 -34.5l108 -94l108 94q20 19 47.5 34.5t57.5 15.5t57.5 -10.5t48.5 -29.5q23 -22 30.5 -47t7.5 -55q0 -31 -10 -58.5t-33 -49.5v0z" />
    <glyph glyph-name="uniE647" unicode="&#xe647;" 
d="M799 726v101v19q0 15 -22.5 35t-61.5 37.5t-91.5 29.5t-111.5 12t-111.5 -12t-91.5 -29.5t-61.5 -37.5t-22.5 -35v-19v-101q0 -41 31 -79t68.5 -72.5t68.5 -66t31 -60.5t-31 -60.5t-68.5 -66t-68.5 -72.5t-31 -79v-101v-19q0 -15 22.5 -35t61.5 -37.5t91.5 -29.5
t111.5 -12t111.5 12t91.5 29.5t61.5 37.5t22.5 35v19v101q0 42 -31 79.5t-68.5 72t-68.5 66t-31 60.5t31 60.5t68.5 66t68.5 72.5t31 79v0zM304 841q27 17 78.5 36t132.5 19t143 -27.5l62 -27.5q5 -4 18 -13.5t-2 -17.5q-32 -20 -91.5 -36.5t-132.5 -16.5t-131 18t-90 37
q-15 9 -1 19l14 10v0zM538 448q0 -46 32 -80t73 -73q29 -29 61 -64t32 -61v-68q-18 10 -51.5 20t-66 24t-56.5 34.5t-24 50.5t-26 30t-26 -30t-24 -50.5t-56.5 -34.5t-66 -24t-51.5 -20v68q0 26 32 61t61 64q41 39 73 73t32 80t-32 80t-73 73q-29 29 -61 64t-32 61l-3 51
q40 -21 99.5 -38t127.5 -17t128 17t99 38l-3 -51q0 -26 -32 -61t-61 -64q-41 -39 -73 -73t-32 -80v0z" />
    <glyph glyph-name="uniE800" unicode="&#xe800;" horiz-adv-x="768" 
d="M51 909q-21 0 -36 -15t-15 -36v-820q0 -19 16 -35t35 -16h461q19 0 35 16t16 35v256h26q19 0 22 -12.5l3 -12.5v-103q0 -38 19.5 -57t57.5 -19q39 0 58 19t19 57v62.5v82v80.5v57q0 38 -51 76.5t-51 77.5v153h-52l-51 51v52q0 21 -14.5 36t-36.5 15h-461zM102 806h359
v-204h-359v204zM563 653h51v-26v-51q0 -38 51.5 -76.5t51.5 -77.5v-256q0 -19 -13 -22l-13 -3l-12.5 3t-12.5 22v54.5v73.5q0 20 -16 36t-36 16h-32h-19v307z" />
    <glyph glyph-name="uniE802" unicode="&#xe802;" horiz-adv-x="594" 
d="M563 499q31 0 31 -51t-31 -51h-215v-215q0 -31 -51 -31t-51 31v215h-215q-31 0 -31 51t31 51h215v215q0 31 51 31t51 -31v-215h215v0z" />
    <glyph glyph-name="uniE803" unicode="&#xe803;" horiz-adv-x="594" 
d="M563 499q31 0 31 -51t-31 -51h-532q-31 0 -31 51t31 51h532v0z" />
    <glyph glyph-name="uniE804" unicode="&#xe804;" horiz-adv-x="472" 
d="M360 960q50 0 76 -28q27 -27 27 -70q0 -52 -40 -90q-40 -39 -97 -39q-50 0 -76 26q-27 27 -25 74q0 47 36 87t99 40v0zM150 -64q-103 0 -56 182l62 260q14 58 0 58q-13 0 -56 -19q-43 -18 -73 -39l-27 45q92 80 194 129q101 50 154 50q80 0 37 -166l-72 -273
q-16 -65 6 -65q46 0 121 61l31 -41q-86 -88 -179 -135t-142 -47v0z" />
    <glyph glyph-name="uniE805" unicode="&#xe805;" horiz-adv-x="902" 
d="M451 899l122 -345h328l-268 -200l96 -357l-278 213l-279 -213l96 357l-268 200h328z" />
    <glyph glyph-name="uniE806" unicode="&#xe806;" horiz-adv-x="902" 
d="M901 554l-268 -200l96 -357l-278 213l-279 -213l96 357l-268 200h328l123 345l122 -345h328v0zM451 311l153 -127l-63 182l147 117l-180 -4l-57 207l-56 -207l-180 4l145 -117l-63 -182z" />
    <glyph glyph-name="uniE807" unicode="&#xe807;" horiz-adv-x="922" 
d="M909 434q17 -17 12 -28q-6 -11 -28 -11h-86v-318q0 -14 -1 -21t-8 -14q-7 -6 -24 -6h-209v318h-209v-318h-198q-29 0 -36 11q-7 10 -7 30v318h-86q-23 0 -28 11t11 28l410 411q16 17 39 17q22 0 39 -17z" />
    <glyph glyph-name="uniE808" unicode="&#xe808;" horiz-adv-x="718" 
d="M666 499q22 0 36 -15q15 -16 15 -36t-16 -36q-15 -15 -35 -15h-615q-20 0 -36 15q-15 16 -15 36t14 36q15 15 37 15h615v0zM51 602q-20 0 -36 15q-15 15 -15 36q0 20 14 36q15 15 37 15h615q22 0 36 -15q15 -16 15 -36q0 -21 -16 -36q-15 -15 -35 -15h-615v0zM666 294
q22 0 36 -15q15 -15 15 -36q0 -20 -16 -36q-15 -15 -35 -15h-615q-20 0 -36 15q-15 16 -15 36q0 21 14 36q15 15 37 15h615v0z" />
    <glyph glyph-name="uniE809" unicode="&#xe809;" horiz-adv-x="882" 
d="M809 749q72 -65 72 -160q0 -94 -72 -161l-369 -338l-368 338q-72 67 -72 161q0 95 72 160q63 59 154 59t157 -59l57 -53l60 53q63 59 153 59t156 -59v0z" />
    <glyph glyph-name="uniE80A" unicode="&#xe80a;" horiz-adv-x="922" 
d="M895 720q14 7 23 -1q8 -7 0 -19q-99 -141 -168 -218q-70 -77 -113 -92q-43 -16 -75 -2q-32 13 -61 37q-30 25 -65 41q-35 17 -95 -4q-60 -20 -142 -88l92 -360h-103l-188 737l94 35q92 68 156 88q63 20 100 3t66 -52q28 -35 63 -73t81 -63q46 -26 132 -21t203 52v0z" />
    <glyph glyph-name="uniE80B" unicode="&#xe80b;" horiz-adv-x="860" 
d="M778 448q0 -74 82 -125q-12 -41 -35 -84q-71 19 -139 -45q-55 -59 -35 -139q-41 -21 -86 -37q-47 84 -135 84t-135 -84q-45 16 -86 37q20 82 -35 139q-55 55 -139 35q-15 26 -35 84q84 53 84 135q0 74 -84 127q20 57 35 84q76 -18 139 45q55 57 35 139q43 23 86 35
q47 -82 135 -82t135 82q43 -12 86 -35q-20 -80 35 -139q68 -63 139 -45q23 -43 35 -84q-82 -51 -82 -127v0zM430 262q78 0 132 54t54 132t-54 133t-132 55t-132 -55t-54 -133t54 -132t132 -54v0z" />
    <glyph glyph-name="uniE80C" unicode="&#xe80c;" horiz-adv-x="594" 
d="M578 522l-240 -230q-19 -18 -41 -18q-23 0 -41 18l-240 230q-16 16 -16 42q0 25 16 42q39 39 80 0l201 -193l201 193q41 39 80 0q16 -17 16 -42q0 -26 -16 -42v0z" />
    <glyph glyph-name="uniE80D" unicode="&#xe80d;" horiz-adv-x="350" 
d="M248 731q14 16 40 16q25 0 42 -16q39 -37 0 -82l-191 -201l191 -199q39 -45 0 -82q-17 -16 -41 -16q-25 0 -41 16l-232 242q-16 16 -16 39q0 25 16 41q211 219 232 242v0z" />
    <glyph glyph-name="uniE80E" unicode="&#xe80e;" horiz-adv-x="348" 
d="M100 731l232 -242q16 -16 16 -41q0 -23 -16 -39l-232 -242q-16 -16 -41 -16q-24 0 -41 16q-36 37 0 82l191 199l-191 201q-36 45 0 82q17 16 42 16q26 0 40 -16v0z" />
    <glyph glyph-name="uniE80F" unicode="&#xe80f;" horiz-adv-x="594" 
d="M578 376q16 -16 16 -42q0 -25 -16 -42q-39 -39 -80 0l-201 193l-201 -193q-41 -39 -80 0q-16 17 -16 42q0 26 16 42l240 230q16 16 41 16t41 -16z" />
    <glyph glyph-name="uniE810" unicode="&#xe810;" horiz-adv-x="676" 
d="M676 464l-338 -389l-338 389h197v359h282v-359h197v0z" />
    <glyph glyph-name="uniE811" unicode="&#xe811;" horiz-adv-x="748" 
d="M387 110l-387 338l387 338v-195h361v-284h-361v-197v0z" />
    <glyph glyph-name="uniE812" unicode="&#xe812;" horiz-adv-x="748" 
d="M358 786l390 -338l-390 -338v197h-358v284h358v195v0z" />
    <glyph glyph-name="uniE813" unicode="&#xe813;" horiz-adv-x="676" 
d="M676 434h-197v-359h-282v359h-197l338 389z" />
    <glyph glyph-name="uniE814" unicode="&#xe814;" horiz-adv-x="986" 
d="M980 65q10 -16 0 -35q-10 -16 -31 -16h-913q-19 0 -29 16q-13 19 -2 35l457 801q8 18 31 18q22 0 30 -18zM550 116v103h-113v-103h113v0zM550 294v308h-113v-308h113v0z" />
    <glyph glyph-name="uniE815" unicode="&#xe815;" 
d="M778 595q103 0 174 -69q72 -70 72 -170q0 -101 -72 -170q-71 -70 -174 -70h-592q-75 0 -131 53q-55 54 -55 127q0 76 54 129q55 54 132 54q2 0 11 -1q8 -1 10 -1q-2 12 -2 39q0 110 80 188t192 78q92 0 164 -53q72 -54 96 -138q29 4 41 4v0z" />
    <glyph glyph-name="uniE816" unicode="&#xe816;" horiz-adv-x="922" 
d="M31 690q-33 18 -29 41q2 14 27 14h866q39 0 20 -33q-8 -14 -24 -22q-14 -6 -197 -105q-182 -98 -186 -100q-16 -10 -47 -10q-29 0 -47 10q-4 2 -187 100q-182 99 -196 105v0zM901 587q21 11 21 -10v-377q0 -16 -18 -33q-17 -16 -34 -16h-819q-16 0 -34 16q-17 17 -17 33
v377q0 21 20 10l394 -205q18 -10 47 -10q28 0 47 10z" />
    <glyph glyph-name="uniE817" unicode="&#xe817;" horiz-adv-x="800" 
d="M735 786q33 -33 48 -66q16 -32 16 -49v-16l-258 -258l-297 -295l-244 -53l51 245l297 295l258 258q56 13 129 -61v0zM229 131l25 24q-2 45 -53 96q-23 23 -46 36q-24 14 -36 14l-15 2l-22 -25l-19 -82q29 -16 48 -35q24 -24 36 -49z" />
    <glyph glyph-name="uniE818" unicode="&#xe818;" horiz-adv-x="684" 
d="M255 90q-35 0 -57 28l-185 242q-16 25 -12 53q4 29 27 47q22 19 52 15t48 -29l121 -158l303 486q16 24 44 30t54 -8q25 -16 31 -44t-8 -54l-359 -574q-20 -32 -57 -32z" />
    <glyph glyph-name="uniE819" unicode="&#xe819;" horiz-adv-x="482" 
d="M463 288q18 -18 18 -44q0 -25 -18 -44q-19 -16 -44 -16q-26 0 -44 16l-135 156l-136 -156q-18 -16 -44 -16q-25 0 -44 16q-16 19 -16 44q0 26 16 44l142 160l-142 162q-16 18 -16 44q0 25 16 44q19 16 44 16q26 0 44 -16l136 -156l135 156q18 16 44 16q25 0 44 -16
q18 -19 18 -44q0 -26 -18 -44l-141 -162z" />
    <glyph glyph-name="uniE81A" unicode="&#xe81a;" horiz-adv-x="594" 
d="M506 847q88 -63 88 -188q0 -66 -43 -127q-12 -21 -90 -82l-47 -31q-41 -34 -49 -61q-7 -16 -9 -45q0 -15 -16 -15h-131q-16 0 -16 13q4 100 28 127q17 22 49 49q33 27 58 43l24 14q23 17 35 35q29 45 29 72q0 41 -27 80q-29 36 -94 36q-70 0 -96 -45q-29 -43 -29 -94
h-170q6 166 117 238q71 43 170 43q133 0 219 -62v0zM285 196q45 0 74 -31q30 -30 28 -75q-2 -48 -33 -75q-30 -28 -75 -26q-46 0 -75 30q-30 30 -28 77t33 74q31 28 76 26v0z" />
    <glyph glyph-name="uniE81B" unicode="&#xe81b;" horiz-adv-x="780" 
d="M150 786q149 0 188 -150q39 -143 -41 -309q-82 -172 -229 -209q-33 -8 -68 -8v72q115 0 186 110q56 88 27 150q-16 37 -63 37q-62 0 -106 45t-44 108q0 64 44 109t106 45v0zM580 786q149 0 188 -150q39 -143 -41 -309q-82 -172 -229 -209q-33 -8 -68 -8v72q115 0 186 110
q56 88 27 150q-16 37 -63 37q-62 0 -106 45t-44 108q0 64 44 109t106 45v0z" />
    <glyph glyph-name="uniE81C" unicode="&#xe81c;" horiz-adv-x="882" 
d="M868 876q9 -8 12 -16q3 -9 -2 -23q-6 -14 -11 -27q-5 -12 -19 -39q-14 -28 -25 -51q-55 -114 -150 -292q-95 -179 -161 -299l-68 -121l-55 389l-389 57q453 252 713 377q20 10 49 26q29 15 40 20t25 9q15 4 24 1t17 -11v0zM774 778l-311 -287l29 -240z" />
    <glyph glyph-name="uniE81D" unicode="&#xe81d;" horiz-adv-x="922" 
d="M553 348q-215 0 -340 -46q-125 -47 -213 -202q4 20 13 54q10 34 52 120q41 86 98 151q56 66 160 120q103 55 230 55v196l369 -330l-369 -342v224v0z" />
    <glyph glyph-name="uniE81E" unicode="&#xe81e;" horiz-adv-x="718" 
d="M102 294q21 0 36 -15q16 -15 16 -36q0 -20 -16 -36q-15 -15 -36 -15h-51q-20 0 -36 15q-15 16 -15 36q0 21 14 36q15 15 37 15h51v0zM102 499q21 0 36 -15q16 -16 16 -36t-16 -36q-15 -15 -36 -15h-51q-20 0 -36 15q-15 16 -15 36t14 36q15 15 37 15h51v0zM102 704
q21 0 36 -15q16 -16 16 -36q0 -21 -16 -36q-15 -15 -36 -15h-51q-20 0 -36 15q-15 15 -15 36q0 20 14 36q15 15 37 15h51v0zM307 602q-20 0 -36 15q-15 15 -15 36q0 20 15 36q16 15 36 15h359q22 0 36 -15q15 -16 15 -36q0 -21 -16 -36q-15 -15 -35 -15h-359v0zM666 499
q22 0 36 -15q15 -16 15 -36t-16 -36q-15 -15 -35 -15h-359q-20 0 -36 15q-15 16 -15 36t15 36q16 15 36 15h359v0zM666 294q22 0 36 -15q15 -15 15 -36q0 -20 -16 -36q-15 -15 -35 -15h-359q-20 0 -36 15q-15 16 -15 36q0 21 15 36q16 15 36 15h359v0z" />
    <glyph glyph-name="uniE81F" unicode="&#xe81f;" horiz-adv-x="984" 
d="M967 940q37 -109 -9 -204q-45 -95 -131 -161l19 -25q16 -28 6 -55l-49 -162q-12 -30 -37 -47l-475 -336q-43 -30 -66 4l-215 312q-12 18 -9 40q3 21 22 33l475 336q26 19 55 19h162q30 0 49 -27l29 -41q172 133 116 293q-10 29 19 41q33 8 39 -20v0zM745 460q41 33 35 82
l-32 -16q-9 -4 -13 -4q-18 0 -28 18q-13 31 16 41l25 14q-50 35 -95 0q-28 -18 -35 -52q-6 -34 15 -62q18 -27 52 -33t60 12v0z" />
    <glyph glyph-name="uniE820" unicode="&#xe820;" horiz-adv-x="922" 
d="M922 100q-88 155 -213 202q-125 46 -338 46v-224l-371 342l371 330v-196q92 0 172 -28t134 -72t98 -97t71 -107q26 -53 45 -97q18 -44 24 -70z" />
    <glyph glyph-name="uniE821" unicode="&#xe821;" 
d="M371 659l-217 -193l217 -200v-142l-371 342l371 330v-137v0zM627 600q106 0 186 -52q80 -51 118 -125q38 -73 61 -147q24 -74 28 -125l4 -51q-88 158 -172 203t-225 45v-224l-371 342l371 330v-196v0z" />
    <glyph glyph-name="uniE822" unicode="&#xe822;" 
d="M768 151v57l102 84v-192q0 -21 -15 -36t-36 -15h-768q-20 0 -36 15q-15 15 -15 36v563q0 23 14 37q15 14 37 14h295q-33 -24 -60 -50q-28 -26 -40 -40l-10 -12h-134v-461h666v0zM684 507q-170 0 -248 -42t-164 -185q0 8 1 23q1 14 10 57q8 43 22 81t45 85t72 81t109 57
q69 24 153 24v159l340 -256l-340 -266v182v0z" />
    <glyph glyph-name="uniE823" unicode="&#xe823;" horiz-adv-x="1004" 
d="M68 628q-27 0 -23 23q4 10 12 14q2 0 51 17q48 18 95 33q47 16 59 16h45v153h389v-153h47q13 0 59 -16q46 -15 94 -33q48 -17 50 -17q19 -8 12 -27q-4 -10 -20 -10h-870v0zM948 571q21 0 38 -20q18 -19 18 -42v-178q0 -22 -18 -42q-17 -19 -38 -19h-102l45 -256h-778
l45 256h-101q-20 0 -39 19q-18 20 -18 42v178q0 23 18 42q19 20 39 20h891v0zM215 116h573l-71 332h-430z" />
    <glyph glyph-name="uniE824" unicode="&#xe824;" horiz-adv-x="820" 
d="M717 806q43 0 73 -29q29 -30 29 -73v-358q0 -41 -29 -72q-30 -31 -73 -31h-205v-153l-205 153h-205q-41 0 -71 31q-31 31 -31 72v358q0 43 31 73q30 29 71 29h615v0z" />
    <glyph glyph-name="uniE825" unicode="&#xe825;" 
d="M297 335h358q2 0 7 2h4v-94q0 -41 -30 -71q-30 -31 -73 -31h-256l-153 -154v154h-52q-41 0 -71 31q-31 30 -31 71v307q0 43 31 73q30 30 71 30h195v-318v0zM922 909q43 0 72 -30q30 -30 30 -73v-307q0 -41 -30 -71q-29 -31 -72 -31h-52v-154l-153 154h-359v409
q0 43 31 73t72 30h461v0z" />
    <glyph glyph-name="uniE826" unicode="&#xe826;" 
d="M922 858q43 0 72 -30q30 -30 30 -73v-614q0 -41 -30 -72q-29 -31 -72 -31h-820q-41 0 -71 31q-31 31 -31 72v614q0 43 31 73q30 30 71 30h820v0zM922 141v614h-820v-614h820v0zM461 342v-93h-256v93h256v0zM461 495v-92h-256v92h256v0zM461 649v-92h-256v92h256v0z
M815 321l4 -72h-256q0 72 6 72q86 23 86 68q0 16 -27 57q-28 41 -28 90q0 113 92 113t92 -113q0 -49 -28 -90q-29 -41 -29 -57q0 -21 22 -37q21 -17 44 -23z" />
    <glyph glyph-name="uniE827" unicode="&#xe827;" 
d="M436 909q21 0 21 -21v-880q0 -21 -21 -21h-47q-20 0 -20 21v450h-181q-16 0 -28 6q-13 2 -27 13l-123 84q-10 6 -10 16t10 16l123 84q14 11 27 13q8 4 28 4h181v194q0 21 20 21h47v0zM1014 696q10 -6 10 -17q0 -10 -10 -16l-121 -84q-23 -12 -27 -12q-14 -6 -28 -6h-310
l-41 235h351q18 0 28 -4q11 -4 27 -12z" />
    <glyph glyph-name="uniE828" unicode="&#xe828;" horiz-adv-x="512" 
d="M256 858q106 0 181 -75t75 -181q0 -109 -63 -249q-64 -141 -130 -229l-63 -86q-10 13 -28 36q-17 24 -61 91q-44 68 -78 133q-34 66 -61 151q-28 85 -28 153q0 106 75 181t181 75v0zM256 460q57 0 98 41t41 99q0 57 -41 97t-98 40t-97 -40t-40 -97q0 -58 40 -99t97 -41v0
z" />
    <glyph glyph-name="uniE829" unicode="&#xe829;" 
d="M1008 704q16 -10 16 -31v-598q0 -20 -16 -30q-9 -7 -17 -7t-18 7l-221 139l-222 -139q-18 -11 -34 0l-224 139l-221 -139q-16 -11 -35 0q-16 10 -16 30v598q0 21 16 31l240 150q18 10 35 0l221 -140l223 140q17 10 33 0zM240 243v518l-172 -106v-518zM479 137v518
l-172 106v-518zM719 243v518l-174 -106v-518zM956 137v518l-172 106v-518z" />
    <glyph glyph-name="uniE82A" unicode="&#xe82a;" horiz-adv-x="778" 
d="M51 559q125 -72 338 -72t338 72l-55 -498q-2 -14 -36 -37q-34 -22 -102 -44q-69 -21 -145 -21t-143 21q-68 22 -103 44q-34 23 -37 37zM551 866q96 -19 162 -57q65 -37 65 -72v-10q0 -60 -114 -102q-115 -42 -275 -42t-274 42q-115 42 -115 102v10q0 35 66 72
q65 38 161 57l43 49q23 27 72 27h94q53 0 72 -27zM496 751h86q-95 113 -107 129q-14 17 -33 17h-104q-23 0 -33 -17l-108 -129h86l65 68h84z" />
    <glyph glyph-name="uniE82B" unicode="&#xe82b;" horiz-adv-x="1026" 
d="M993 581q39 -10 31 -47l-154 -569q-4 -17 -18 -24t-31 -3l-415 113q-17 4 -25 18t-4 29l24 94l-184 -49q-41 -10 -51 26l-164 617q-10 37 29 49l465 125q16 4 30 -3q15 -7 19 -24l67 -249zM84 776l147 -555l402 108l-148 553zM803 16l135 504l-305 84l78 -289
q10 -35 -29 -47l-201 -53l-26 -105z" />
    <glyph glyph-name="uniE82C" unicode="&#xe82c;" horiz-adv-x="922" 
d="M154 90q0 41 30 71q31 31 72 31q43 0 73 -31q29 -30 29 -71q0 -43 -29 -73q-30 -30 -73 -30q-41 0 -72 30q-30 30 -30 73v0zM666 90q0 41 30 71q31 31 72 31q43 0 73 -31q29 -30 29 -71q0 -43 -29 -73q-30 -30 -73 -30q-41 0 -72 30q-30 30 -30 73v0zM336 331
q-37 -10 -35 -23q2 -14 45 -14h576v-77q0 -21 -21 -21h-670q-20 0 -20 21v77l-10 48l-101 464h-100v82q0 21 20 21h160q21 0 21 -21v-88h721v-280q0 -23 -19 -27z" />
    <glyph glyph-name="uniE82D" unicode="&#xe82d;" horiz-adv-x="812" 
d="M487 854h324v-324l-102 127l-150 -156l-102 103l155 149zM252 399l102 -103l-155 -149l125 -102h-324v323l102 -125z" />
    <glyph glyph-name="uniE82E" unicode="&#xe82e;" horiz-adv-x="922" 
d="M160 239l-109 103h303v-304l-102 109l-150 -160l-102 103zM922 806l-158 -147l106 -102h-301v301l103 -107l147 158z" />
    <glyph glyph-name="uniE82F" unicode="&#xe82f;" horiz-adv-x="820" 
d="M717 858q43 0 73 -30q29 -30 29 -73v-409q0 -41 -29 -72q-30 -31 -73 -31h-410q-41 0 -71 31q-31 31 -31 72v411q0 41 29 71q30 30 73 30h410v0zM717 346v409h-410v-409h410v0zM102 448v-307h308v-103h-308q-41 0 -71 31q-31 31 -31 72v307h102v0z" />
    <glyph glyph-name="uniE830" unicode="&#xe830;" 
d="M990 497q41 -43 31 -74l-29 -157q-4 -21 -22 -34q-19 -13 -41 -13h-836q-22 0 -41 13q-18 13 -22 34l-29 157q-8 33 33 74q8 10 37 39q28 29 69 69t54 52q22 22 53 22h528q31 0 53 -22q17 -16 55 -53t68 -67q31 -30 39 -40v0zM718 464h182l-104 117h-570l-104 -117h182
q8 0 12 -8l41 -102h308l41 102q4 8 12 8v0z" />
    <glyph glyph-name="uniE831" unicode="&#xe831;" 
d="M274 -33l127 409h-184l-115 -102h-102l82 174l-82 174h102l115 -102h184l-127 409h103l229 -409h281v0l37 -4q37 -5 47 -12t37 -21q26 -15 16 -35q0 -33 -39 -50q-39 -18 -76 -20l-39 -2h-264l-229 -409h-103v0z" />
    <glyph glyph-name="uniE832" unicode="&#xe832;" horiz-adv-x="942" 
d="M942 741q-37 -55 -96 -100v-25q0 -133 -62 -256q-61 -123 -190 -208t-297 -85q-164 0 -297 86q14 -2 47 -2q135 0 240 82q-64 2 -113 39t-68 96q11 -4 35 -4q27 0 52 6q-68 15 -111 68t-43 123v2q37 -21 86 -25q-86 60 -86 162q0 49 27 96q157 -192 399 -201q-6 19 -6 43
q0 80 56 137q56 56 138 56q84 0 140 -59q61 12 122 45q-20 -68 -84 -107q58 8 111 31v0z" />
    <glyph glyph-name="uniE833" unicode="&#xe833;" horiz-adv-x="512" 
d="M512 749h-145q-15 0 -26 -15q-11 -16 -11 -38v-105h182v-151h-182v-453h-174v453h-156v151h156v88q0 97 60 163q60 67 151 67h145v-160v0z" />
    <glyph glyph-name="uniE834" unicode="&#xe834;" horiz-adv-x="922" 
d="M209 804q0 -41 -30 -69q-29 -29 -77 -29q-45 0 -73 29q-29 28 -29 69q0 43 29 71q28 28 75 28q48 0 75 -28q28 -28 30 -71v0zM6 -5v633h197v-633h-197v0zM319 425q0 89 -4 203h170l11 -88h4q61 103 194 103q103 0 165 -69q63 -69 63 -204v-375h-197v351q0 137 -100 137
q-72 0 -101 -74q-6 -12 -6 -49v-365h-199v430v0z" />
    <glyph glyph-name="uniE835" unicode="&#xe835;" 
d="M877 620h-103l-127 154l-219 -154h-184q-54 0 -92 -40q-39 -40 -39 -93v-164l-111 303q-10 39 23 53l696 254q37 11 51 -24zM985 528q16 0 28 -12q11 -13 11 -29v-483q0 -17 -11 -29q-12 -12 -28 -12h-741q-17 0 -28 12t-11 29v483q0 16 11 29q11 12 28 12h741v0zM928 65
v166l-74 164l-170 -62l-133 -135l-141 174l-95 -219v-88h613v0z" />
    <glyph glyph-name="uniE836" unicode="&#xe836;" horiz-adv-x="984" 
d="M492 940q204 0 348 -145q143 -144 143 -347q0 -205 -143 -348q-144 -144 -348 -144q-203 0 -348 144q-144 143 -144 348q0 203 144 347q145 145 348 145v0zM911 448q0 135 -80 245q-79 109 -206 152q-19 -24 -17 -32q4 -39 19 -53q14 -13 30 -7l33 12v0l21 2
q22 -24 0 -48q-23 -23 -46 -57q-24 -34 -1 -79q34 -65 98 -65q29 -2 44 -37t17 -68q11 -82 -14 -143q-23 -45 14 -78q88 115 88 256v0zM434 862q-115 -15 -204 -86q-89 -72 -130 -178q6 0 23 -3q16 -2 29 -3q12 -1 26 -4q15 -3 25 -8t12 -13q4 -13 -14 -46q-19 -34 -19 -63
q0 -30 39 -57t39 -47q0 -29 8 -70t8 -45q0 -12 37 -55t54 -43q10 0 11 22q1 23 -2 56q-3 32 -3 41q0 32 14 75q12 43 60 72q49 29 57 47q16 35 9 63q-7 27 -17 44q-11 16 -35 28q-25 13 -42 18q-18 5 -38 9q-21 4 -23 4q-16 6 -43 7q-26 1 -36 -3q-11 -4 -28 11
q-18 16 -18 30q0 10 16 28q15 17 36 38q20 20 28 30q9 15 18 22t22 16q14 9 28 22q4 4 26 17q21 13 27 24v0zM360 49q68 -21 132 -21q131 0 231 70q-27 45 -121 35q-24 -2 -66 -18q-42 -15 -49 -17q-75 -17 -77 -17q-13 -2 -27 -14t-23 -18v0z" />
    <glyph glyph-name="uniE837" unicode="&#xe837;" horiz-adv-x="964" 
d="M242 751q186 109 518 68q172 -23 201 -52q4 -6 -3 -10q-77 -41 -133 -111q-55 -71 -80 -136q-24 -64 -66 -135q-42 -70 -95 -107q-142 -99 -391 -4q-68 -78 -117 -181q-13 -24 -48 -7q-36 18 -26 40q45 103 132 198t180 157q94 61 181 108t144 70l55 20q-14 0 -42 -1
q-27 -1 -106 -14t-152 -39q-72 -26 -166 -86q-93 -61 -165 -144q-22 247 179 366v0z" />
    <glyph glyph-name="uniE838" unicode="&#xe838;" 
d="M170 333l342 -172l283 140q-4 -23 -9 -49q-4 -25 -6 -35q-2 -11 -11 -24t-25 -24q-15 -10 -46 -22q-41 -18 -82 -42t-64 -35q-24 -11 -40 -11t-41 13q-25 14 -65 38q-41 25 -82 41q-74 33 -106 71t-48 111v0zM999 585q25 -14 25 -34q0 -19 -25 -33l-79 -45l-316 104
q-22 37 -92 37q-41 0 -69 -16q-27 -17 -27 -41q0 -25 27 -41q28 -17 69 -17q27 0 37 4l299 -69l-275 -156q-61 -33 -122 0l-426 240q-25 14 -25 33q0 20 25 34l426 240q61 33 122 0zM868 133q19 118 14 186t-20 92l-14 23l72 39q6 -9 12 -29q6 -21 17 -104q12 -82 -7 -201
q-4 -27 -22 -31q-19 -4 -36 5q-18 9 -16 20v0z" />
    <glyph glyph-name="uniE839" unicode="&#xe839;" horiz-adv-x="964" 
d="M221 368l334 334l182 -182l-334 -334zM948 618q15 -14 15 -37q0 -22 -15 -37l-563 -563q-16 -16 -37 -16q-20 0 -37 16l-78 78q13 20 13 49q0 43 -30 74q-30 30 -73 30q-22 0 -51 -14l-76 78q-16 16 -16 37q0 20 16 37l564 563q14 14 36 14q23 0 37 -14l76 -78
q-12 -22 -12 -49q0 -43 31 -73q30 -29 73 -29q27 0 49 12zM403 104l416 416l-264 264l-418 -416z" />
    <glyph glyph-name="uniE83A" unicode="&#xe83a;" horiz-adv-x="1004" 
d="M1004 704h-103v-102h103v-103h-103v-102h103v-103h-103v-102h103v-61q0 -17 -13 -29q-12 -12 -28 -12h-922q-16 0 -29 12q-12 12 -12 29v61h102v102h-102v103h102v102h-102v103h102v102h-102v61q0 19 12 30q13 11 29 11h922q16 0 28 -11q13 -11 13 -30v-61v0zM389 294
l256 154l-256 154v-308v0z" />
    <glyph glyph-name="uniE83B" unicode="&#xe83b;" horiz-adv-x="922" 
d="M522 227v-68q72 -8 119 -33q47 -24 47 -57q0 -37 -66 -64q-67 -28 -161 -28q-92 0 -160 28q-68 27 -68 64q0 33 48 57q47 25 120 33v68q0 51 -33 86q-34 35 -116 90q-57 37 -89 62q-32 26 -77 74t-66 111q-20 62 -20 140q0 14 11 25q12 10 26 10h176q49 94 248 94
q201 0 250 -94h174q14 0 25 -10q12 -11 12 -25q0 -78 -21 -140q-20 -63 -65 -111t-77 -74q-32 -25 -89 -62q-80 -53 -114 -89t-34 -87v0zM664 485q81 57 129 117q47 59 55 151h-129q-6 -162 -55 -268v0zM461 858q-64 0 -111 -16q-47 -15 -65 -33q-19 -17 -19 -29
q0 -15 19 -32q18 -17 65 -33q47 -15 111 -15q63 0 110 15q47 16 66 33q18 17 18 32q0 12 -18 29q-19 18 -66 33q-47 16 -110 16v0zM74 753q8 -92 55 -151q47 -60 129 -117q-49 106 -55 268h-129v0z" />
    <glyph glyph-name="uniE83C" unicode="&#xe83c;" horiz-adv-x="820" 
d="M596 581q2 -6 59 -13q58 -7 111 -25q53 -17 53 -48q0 -74 -62 -291q-63 -217 -110 -217q-147 0 -295 43q-147 43 -147 90v351q0 14 15 34q16 21 47 46q32 26 55 42q22 17 63 44q41 28 47 32q51 35 107 103q55 67 87 106q31 39 42 27q49 -78 29 -141q-19 -62 -60 -121
q-41 -60 -41 -62v0zM154 577q14 0 0 -14q-52 -52 -52 -107v-325q0 -52 54 -107q10 -10 -2 -10q-27 0 -57 8q-29 8 -63 46t-34 101v248q0 64 34 103t64 48q31 9 56 9v0z" />
    <glyph glyph-name="uniE83D" unicode="&#xe83d;" horiz-adv-x="820" 
d="M223 313q-2 6 -58 13t-111 25q-54 17 -54 48q0 74 63 292q64 218 109 218q147 0 295 -44q147 -44 147 -91v-351q0 -10 -8 -24t-25 -31q-18 -16 -33 -30q-16 -13 -43 -32l-42 -30t-42 -29l-34 -22q-51 -35 -106 -103q-56 -67 -87 -106q-32 -39 -42 -27q-50 78 -30 141
q19 62 60 121q41 60 41 62v0zM666 317q-13 0 2 14q49 51 49 107v325q0 52 -53 107q-11 10 2 10q26 0 56 -8t63 -46q34 -38 34 -102v-247q0 -49 -18 -83q-19 -34 -46 -49q-28 -16 -49 -22q-22 -6 -40 -6v0z" />
    <glyph glyph-name="uniE83E" unicode="&#xe83e;" horiz-adv-x="964" 
d="M754 221q209 -74 209 -125v-109h-963v109q0 51 209 125q96 34 131 70t35 98q0 22 -23 50q-22 27 -33 75q-2 12 -9 18t-14 8t-14 18q-8 15 -10 44q0 16 6 26q5 10 9 13l4 4q-8 51 -12 90q-5 55 42 114q46 60 160 60q115 0 162 -60q47 -59 41 -114l-12 -90q18 -9 18 -43
q-2 -29 -9 -44q-7 -16 -14 -18q-8 -2 -15 -8t-9 -18q-8 -50 -32 -76q-23 -27 -23 -49q0 -62 36 -98q35 -36 130 -70v0z" />
    <glyph glyph-name="uniE83F" unicode="&#xe83f;" 
d="M1024 -3h-229v154q0 55 -31 83t-158 91q41 31 41 86q0 17 -13 34t-20 52q-2 8 -14 17q-12 8 -14 43q0 24 12 30q-6 35 -8 62q-4 39 23 80q28 41 98 41q69 0 98 -41t25 -80l-9 -62q13 -6 13 -30q-2 -35 -15 -43q-12 -9 -14 -17q-6 -35 -19 -52q-14 -17 -14 -34
q0 -43 22 -67q21 -25 79 -50q114 -47 133 -82q6 -8 9 -62t5 -103v-50v0zM524 266q187 -80 187 -127v-142h-711v189q0 45 86 80q78 32 107 65q28 33 28 90q0 21 -19 45q-20 25 -26 70q-2 10 -18 23q-17 12 -21 57q0 14 3 23q3 10 7 14l5 2q-7 47 -11 84q-4 51 34 105
q38 55 130 55t130 -55q38 -54 34 -105l-10 -84q14 -8 14 -39q-4 -45 -20 -57q-17 -13 -19 -23q-6 -45 -25 -70q-20 -24 -20 -45q0 -57 29 -90q28 -33 106 -65v0z" />
    <glyph glyph-name="uniE840" unicode="&#xe840;" horiz-adv-x="1026" 
d="M977 602q33 0 41 -13q8 -12 6 -37l-43 -462q-2 -25 -12 -38q-11 -14 -43 -14h-826q-53 0 -57 52l-43 462q-2 25 6 37q8 13 41 13h930v0zM942 714l10 -41h-866l14 135q4 21 21 35q16 15 37 15h168q53 0 88 -35l30 -31q33 -37 88 -37h349q20 0 39 -12q18 -12 22 -29v0z" />
    <glyph glyph-name="uniE841" unicode="&#xe841;" horiz-adv-x="922" 
d="M819 806q43 0 73 -29q30 -30 30 -73v-614q0 -41 -30 -72t-73 -31h-717q-41 0 -71 31q-31 31 -31 72v614q0 43 31 73q30 29 71 29h48v-102h163v102h297v-102h164v102h45v0zM819 90v409h-717v-409h717v0zM266 909v-174h-71v174h71v0zM727 909v-174h-72v174h72v0z" />
    <glyph glyph-name="uniE842" unicode="&#xe842;" horiz-adv-x="860" 
d="M377 878v-377h-377q18 150 124 255q105 106 253 122v0zM485 878q160 -20 268 -142q107 -122 107 -286q0 -178 -126 -305t-306 -127q-164 0 -285 107q-120 108 -143 270h434q21 0 36 14t15 37v432v0z" />
    <glyph glyph-name="uniE843" unicode="&#xe843;" horiz-adv-x="1028" 
d="M35 380q-43 11 -33 58q10 43 55 33l101 -25l-54 -82zM946 368q15 12 34 11t32 -15q32 -33 -2 -66l-258 -231q-13 -12 -31 -12q-14 0 -29 10l-293 225l-55 15l51 82l37 -9q12 -4 17 -8l270 -209zM444 593l-358 -563q-12 -22 -39 -22q-12 0 -24 8q-17 10 -21 30q-4 19 6 33
l383 602q8 17 29 21q18 6 37 -6l252 -160l231 334q10 16 29 19q18 3 35 -9q38 -24 12 -63l-258 -371q-25 -37 -64 -12z" />
    <glyph glyph-name="uniE844" unicode="&#xe844;" horiz-adv-x="820" 
d="M768 909q23 0 37 -16q14 -15 14 -35v-871h-205v871q0 51 41 51h113v0zM461 602q22 0 37 -16q14 -15 14 -36v-563h-205v563q0 52 41 52h113v0zM154 294q22 0 36 -15q15 -15 15 -36v-256h-205v256q0 51 41 51h113v0z" />
    <glyph glyph-name="uniE845" unicode="&#xe845;" horiz-adv-x="1004" 
d="M987 839q17 23 17 -4v-786h-988q-12 0 -15 7t5 17l236 295q20 23 41 2l75 -67q11 -9 22 -8t17 12l162 243q16 27 39 4l115 -106q20 -20 39 4z" />
    <glyph glyph-name="uniE846" unicode="&#xe846;" horiz-adv-x="962" 
d="M250 -54q-105 0 -174 74q-74 72 -76 170t86 195l508 507q82 82 178 56q45 -13 81 -48q36 -36 48 -81q27 -99 -55 -181l-486 -485q-41 -41 -90 -47q-49 -4 -82 29q-30 24 -27 75q3 52 48 95l340 342q24 26 51 0q27 -27 0 -52l-340 -340q-45 -45 -20 -71q12 -8 24 -6
q25 4 47 26l486 486q51 51 34 110q-16 62 -77 78q-56 14 -111 -37l-506 -506q-67 -77 -65 -146t53 -120q51 -49 120 -51q68 -2 144 63l508 506q25 25 51 0q27 -22 0 -49l-508 -508q-84 -84 -190 -84v0z" />
    <glyph glyph-name="uniE847" unicode="&#xe847;" horiz-adv-x="820" 
d="M472 387q166 165 121 211l-8 8q-31 30 -42 49q-12 18 -4 55q7 37 50 90q20 25 38 40q17 16 36 17q18 1 30 1q13 0 30 -14q17 -13 25 -18q7 -5 26 -26l22 -22q49 -49 -6 -199q-56 -149 -209 -301q-154 -154 -302 -210q-149 -56 -198 -7q-2 2 -24 22q-21 21 -25 26t-19 25
q-14 19 -13 31q1 13 2 31q1 19 15 36q15 17 39 38q43 35 72 48t55 2q27 -11 36 -18q9 -8 40 -38q45 -45 213 123v0z" />
    <glyph glyph-name="uniE848" unicode="&#xe848;" horiz-adv-x="594" 
d="M492 950q43 0 72 -30q30 -30 30 -73v-798q0 -41 -30 -72q-29 -31 -72 -31h-390q-41 0 -71 31q-31 31 -31 72v798q0 43 31 73q30 30 71 30h390v0zM297 -13q31 0 51 16q21 15 21 35q0 23 -21 37q-20 15 -51 15q-29 0 -50 -16q-22 -15 -22 -36q0 -20 22 -35q21 -16 50 -16v0
zM512 141v676h-430v-676h430v0z" />
    <glyph glyph-name="uniE849" unicode="&#xe849;" 
d="M512 550q66 0 110 -45t44 -108q0 -64 -45 -109q-46 -45 -109 -45t-109 45q-45 45 -45 109q0 63 45 108q46 45 109 45v0zM922 704q43 0 72 -30q30 -29 30 -72v-461q0 -41 -30 -72q-29 -31 -72 -31h-820q-41 0 -71 31q-31 31 -31 72v461q0 43 31 72q30 30 71 30h123
q29 0 41 31l31 94q10 29 41 29h348q31 0 41 -29l31 -94q12 -31 41 -31h123v0zM512 141q106 0 181 75q75 74 75 181q0 106 -75 181t-181 75t-181 -75t-75 -181q0 -107 75 -181q75 -75 181 -75v0zM887 530q14 0 24 11q11 11 11 26q0 14 -11 24q-10 11 -24 11q-37 0 -37 -35
q0 -17 11 -27t26 -10v0z" />
    <glyph glyph-name="uniE84A" unicode="&#xe84a;" horiz-adv-x="808" 
d="M791 169q30 -34 6 -63l-47 -47q-37 -33 -70 0l-195 194q-75 -43 -159 -43q-131 0 -229 98q-97 97 -97 228t92 224q92 94 223 94t230 -98q98 -97 98 -228q0 -90 -47 -166zM96 536q0 -90 70 -160q70 -69 160 -69t154 64q65 65 65 157q0 90 -70 159q-69 68 -160 68
q-90 0 -154 -64q-65 -65 -65 -155v0z" />
    <glyph glyph-name="uniE84B" unicode="&#xe84b;" horiz-adv-x="820" 
d="M647 526q17 -35 41 -53q25 -19 46 -23q22 -4 45 -24q24 -19 36 -56q23 -63 -76 -165q-98 -101 -258 -160q-168 -60 -304 -47q-136 14 -159 77q-20 56 13 114q32 58 18 114q-57 196 -48 307q9 110 116 196q26 23 29 53q4 29 30 40q25 8 47 -13q23 -20 58 -18
q135 2 202 -68q68 -69 164 -274v0zM457 112q90 33 163 87q72 54 102 93t26 52q-9 22 -51 33q-42 12 -127 1q-85 -10 -191 -49q-105 -39 -177 -89q-73 -50 -97 -86q-23 -36 -17 -54q4 -12 51 -23q47 -10 137 -4q91 6 181 39v0zM393 290q8 2 22 7q13 6 17 8l2 -2
q15 -41 -17 -85t-91 -65q-99 -37 -156 14q80 70 223 123v0z" />
    <glyph glyph-name="uniE84C" unicode="&#xe84c;" horiz-adv-x="370" 
d="M317 909q23 0 37 -16q15 -15 15 -35v-871l-185 185l-184 -185v871q0 51 41 51h276v0z" />
    <glyph glyph-name="uniE84D" unicode="&#xe84d;" horiz-adv-x="942" 
d="M471 919q195 0 333 -138t138 -333t-138 -333t-333 -138t-333 138t-138 333t138 333t333 138v0zM471 79q154 0 261 109q108 108 108 260q0 154 -108 261q-107 108 -261 108q-152 0 -260 -108q-109 -107 -109 -261q0 -152 109 -260q108 -109 260 -109v0zM508 714v-250
l154 -153l-52 -51l-174 174v280h72v0z" />
    <glyph glyph-name="uniE84E" unicode="&#xe84e;" horiz-adv-x="984" 
d="M492 940q204 0 348 -144q143 -143 143 -348q0 -203 -143 -347q-144 -145 -348 -145q-203 0 -348 145q-144 144 -144 347q0 205 144 348q145 144 348 144v0zM-145 673q0 -135 84 -235l526 526q-103 84 -238 84q-155 0 -264 -110q-108 -109 -108 -265v0zM119 565
q155 0 265 109q110 110 110 263q0 134 -84 238l-527 -526q101 -84 236 -84v0z" />
    <glyph glyph-name="uniE84F" unicode="&#xe84f;" horiz-adv-x="882" 
d="M556 331q6 -51 8 -83q2 -31 -8 -60t-13 -41t-36 -33q-33 -20 -46 -26q-14 -7 -72 -32q-58 -26 -87 -38q-33 -12 -46 4t-3 45l41 113l-133 135l-109 -41q-28 -12 -44 2q-15 14 -3 47q12 31 32 81q19 50 28 67q8 16 22 46q14 29 26 36q11 8 29 21q19 13 42 13h54v0l72 -6
q11 14 30 40t79 87q59 62 121 107q61 45 148 76q87 32 169 20q8 0 14 -6q5 -4 7 -15q10 -84 -19 -172t-78 -154q-49 -67 -100 -121t-88 -83zM607 634q23 -22 56 -22q32 0 55 22q22 25 22 58q0 32 -22 57q-23 23 -55 23q-33 0 -56 -23q-22 -25 -22 -57q0 -33 22 -58v0z" />
    <glyph glyph-name="uniE850" unicode="&#xe850;" horiz-adv-x="798" 
d="M328 284q-27 -133 -60 -216q-32 -83 -98 -132q-6 76 -7 123t11 113q12 65 23 106q10 41 26 101q17 61 25 102q-25 53 -20 119q5 65 50 108q44 43 101 21q41 -17 45 -61t-13 -97q-18 -53 -33 -106q-16 -52 -4 -92q11 -40 64 -50q70 -14 124 39t76 134q21 81 11 167
t-55 131q-64 66 -155 72t-167 -34q-75 -40 -122 -120q-48 -80 -33 -174q4 -22 22 -53q19 -31 22 -48q3 -18 -18 -69q-149 35 -143 236q4 141 108 239q103 99 238 115q168 18 297 -58q129 -77 148 -225q26 -180 -68 -324q-94 -145 -258 -132q-23 2 -43 9q-21 7 -31 13t-32 22
q-21 15 -31 21v0z" />
    <glyph glyph-name="uniE851" unicode="&#xe851;" horiz-adv-x="698" 
d="M348 868q156 0 255 -42t93 -89l-73 -608q-2 -15 -35 -37q-33 -23 -100 -43q-66 -21 -140 -21t-139 21q-66 20 -99 43q-34 22 -36 37l-74 608q-4 28 37 58t124 51q83 22 187 22v0zM348 647q74 0 140 15q67 15 101 34q34 18 34 31q0 12 -34 29q-34 18 -101 33
q-66 15 -140 15t-140 -15q-67 -15 -100 -33q-34 -17 -34 -29q0 -13 34 -31q33 -19 100 -34q66 -15 140 -15v0z" />
  </font>
</defs>
</svg>
