<?xml version="1.0" encoding="utf-8"?>
<!-- Generator: Adobe Illustrator 17.0.0, SVG Export Plug-In . SVG Version: 6.00 Build 0)  -->
<!DOCTYPE svg PUBLIC "-//W3C//DTD SVG 1.1//EN" "http://www.w3.org/Graphics/SVG/1.1/DTD/svg11.dtd">
<svg version="1.1" id="Layer_1" xmlns="http://www.w3.org/2000/svg" xmlns:xlink="http://www.w3.org/1999/xlink" x="0px" y="0px"
	 width="47.25px" height="76.25px" viewBox="0 0 47.25 76.25" enable-background="new 0 0 47.25 76.25" xml:space="preserve">
<g>
	<g>
		<path fill="#FFFFFF" d="M23.931,14.087c-5.048,0-9.156,4.108-9.156,9.156s4.108,9.155,9.156,9.155s9.156-4.107,9.156-9.155
			S28.979,14.087,23.931,14.087z"/>
		<g>
			<path fill="#FFFFFF" d="M23.931,37.119c-7.652,0-13.877-6.225-13.877-13.876c0-7.652,6.225-13.877,13.877-13.877
				s13.877,6.225,13.877,13.877c0,2.702-0.788,5.217-2.129,7.352l7.19,7.19c2.34-5.8,3.929-10.964,3.929-14.293
				c0-12.629-10.238-22.867-22.867-22.867c-12.629,0-22.867,10.238-22.867,22.867c0,12.629,22.867,51.665,22.867,51.665
				s10.174-17.37,16.95-32.685l-8.356-8.356C30.159,35.99,27.177,37.119,23.931,37.119z"/>
		</g>
	</g>
</g>
</svg>
