<?xml version="1.0" encoding="utf-8"?>
<!-- Generator: Adobe Illustrator 17.0.0, SVG Export Plug-In . SVG Version: 6.00 Build 0)  -->
<!DOCTYPE svg PUBLIC "-//W3C//DTD SVG 1.1//EN" "http://www.w3.org/Graphics/SVG/1.1/DTD/svg11.dtd">
<svg version="1.1" id="Layer_1" xmlns="http://www.w3.org/2000/svg" xmlns:xlink="http://www.w3.org/1999/xlink" x="0px" y="0px"
	 width="258.924px" height="76.646px" viewBox="0 0 258.924 76.646" enable-background="new 0 0 258.924 76.646"
	 xml:space="preserve">
<rect x="0" y="0" fill="#1BA7DF" width="258.924" height="76.646"/>
<g>
	<g>
		<g>
			<path fill="#FFFFFF" d="M17.132,13.758v48.538h-7.089V13.758H17.132 M17.132,7.676h-7.089c-3.359,0-6.082,2.723-6.082,6.082
				v48.538c0,3.359,2.723,6.082,6.082,6.082h7.089c3.359,0,6.082-2.723,6.082-6.082V13.758C23.215,10.399,20.492,7.676,17.132,7.676
				L17.132,7.676z"/>
			<path fill="#FFFFFF" d="M42.322,25.016c5.212,0,9.682,1.865,13.412,5.594c3.729,3.73,5.593,8.189,5.593,13.377v18.31h-7.122
				v-4.378c-3.521,3.313-7.679,4.969-12.474,4.969c-5.096,0-9.44-1.865-13.03-5.594c-3.567-3.706-5.351-8.142-5.351-13.307
				c0-5.212,1.853-9.671,5.558-13.377C32.64,26.881,37.11,25.016,42.322,25.016 M42.322,55.834c3.266,0,6.057-1.158,8.374-3.474
				c2.339-2.34,3.509-5.13,3.509-8.373c0-3.219-1.17-5.999-3.509-8.339c-2.34-2.34-5.131-3.509-8.374-3.509s-6.034,1.17-8.374,3.509
				c-2.317,2.317-3.474,5.096-3.474,8.339c0,3.266,1.157,6.057,3.474,8.373C36.265,54.677,39.056,55.834,42.322,55.834
				 M42.322,18.933c-6.858,0-12.817,2.481-17.712,7.375c-4.871,4.873-7.341,10.82-7.341,17.679c0,6.769,2.372,12.665,7.051,17.525
				c4.764,4.949,10.622,7.458,17.412,7.458c3.202,0,6.209-0.562,9-1.679c0.985,0.686,2.182,1.088,3.473,1.088h7.122
				c3.359,0,6.082-2.723,6.082-6.082v-18.31c0-6.836-2.481-12.784-7.374-17.678C55.139,21.415,49.18,18.933,42.322,18.933
				L42.322,18.933z M42.322,49.752c-1.646,0-2.902-0.522-4.073-1.693c-1.17-1.17-1.692-2.426-1.692-4.072
				c0-1.622,0.522-2.868,1.692-4.038c1.195-1.195,2.451-1.728,4.073-1.728c1.622,0,2.878,0.533,4.074,1.728
				c1.194,1.194,1.727,2.44,1.727,4.037c0,1.621-0.533,2.877-1.728,4.073C45.224,49.23,43.968,49.752,42.322,49.752L42.322,49.752z"
				/>
			<path fill="#FFFFFF" d="M83.53,25.016c4.215,0,7.933,1.61,11.153,4.83c3.243,3.243,4.865,6.972,4.865,11.188v21.264h-7.123
				V41.033c0-2.409-0.88-4.493-2.641-6.254c-1.761-1.76-3.845-2.64-6.253-2.64c-2.41,0-4.494,0.88-6.255,2.64
				c-1.761,1.761-2.641,3.845-2.641,6.254v21.264h-7.123V41.033c0-4.239,1.61-7.968,4.83-11.188
				C75.561,26.626,79.29,25.016,83.53,25.016 M83.53,18.933c-5.891,0-11.102,2.224-15.489,6.611
				c-4.387,4.386-6.612,9.598-6.612,15.489v21.264c0,3.359,2.723,6.082,6.082,6.082h7.123c3.359,0,6.082-2.723,6.082-6.082V41.033
				c0-0.656,0.146-1.24,0.859-1.953c0.713-0.713,1.297-0.859,1.954-0.859c0.656,0,1.24,0.146,1.953,0.859
				c0.712,0.712,0.859,1.296,0.859,1.952v21.264c0,3.359,2.723,6.082,6.082,6.082h7.123c3.359,0,6.082-2.723,6.082-6.082V41.033
				c0-5.867-2.236-11.078-6.646-15.489C94.597,21.158,89.397,18.933,83.53,18.933L83.53,18.933z"/>
			<path fill="#FFFFFF" d="M142.213,13.758v30.228c0,5.188-1.864,9.647-5.593,13.376c-3.73,3.683-8.201,5.525-13.412,5.525
				c-5.235,0-9.706-1.841-13.412-5.525c-3.705-3.706-5.558-8.165-5.558-13.376c0-5.165,1.783-9.613,5.351-13.343
				c3.566-3.752,7.909-5.629,13.03-5.629c4.817,0,8.975,1.68,12.474,5.038V13.758H142.213 M123.208,55.834
				c3.266,0,6.057-1.158,8.374-3.474c2.339-2.34,3.509-5.13,3.509-8.373c0-3.219-1.17-5.999-3.509-8.339
				c-2.34-2.34-5.131-3.509-8.374-3.509c-3.243,0-6.034,1.17-8.374,3.509c-2.317,2.317-3.474,5.096-3.474,8.339
				c0,3.266,1.157,6.057,3.474,8.373C117.151,54.677,119.942,55.834,123.208,55.834 M142.213,7.676h-7.122
				c-3.359,0-6.082,2.723-6.082,6.082v5.992c-2.029-0.544-4.162-0.817-6.391-0.817c-6.828,0-12.695,2.53-17.438,7.521
				c-4.657,4.868-7.024,10.772-7.024,17.533c0,6.859,2.469,12.806,7.34,17.677c4.883,4.853,10.838,7.306,17.713,7.306
				c6.844,0,12.794-2.449,17.686-7.279c4.921-4.921,7.402-10.868,7.402-17.705V13.758C148.296,10.399,145.573,7.676,142.213,7.676
				L142.213,7.676z M123.208,49.752c-1.646,0-2.902-0.522-4.073-1.693c-1.17-1.17-1.692-2.426-1.692-4.072
				c0-1.622,0.522-2.868,1.692-4.038c1.195-1.195,2.451-1.728,4.073-1.728c1.622,0,2.878,0.533,4.074,1.728
				c1.194,1.194,1.727,2.44,1.727,4.037c0,1.621-0.533,2.877-1.728,4.073C126.111,49.23,124.854,49.752,123.208,49.752
				L123.208,49.752z"/>
			<path fill="#FFFFFF" d="M155.52,13.758v16.295c3.497-3.358,7.645-5.038,12.439-5.038c5.073,0,9.404,1.876,12.994,5.629
				c3.591,3.776,5.386,8.224,5.386,13.343c0,5.188-1.865,9.647-5.594,13.376c-3.73,3.683-8.189,5.525-13.376,5.525
				c-5.235,0-9.706-1.841-13.412-5.525c-3.706-3.706-5.56-8.165-5.56-13.376V13.758H155.52 M167.368,55.834
				c3.242,0,6.022-1.158,8.338-3.474c2.339-2.34,3.509-5.13,3.509-8.373c0-3.219-1.17-5.999-3.509-8.339
				c-2.34-2.34-5.119-3.509-8.338-3.509c-3.243,0-6.035,1.17-8.374,3.509c-2.317,2.317-3.475,5.096-3.475,8.339
				c0,3.266,1.158,6.057,3.475,8.373C161.311,54.677,164.102,55.834,167.368,55.834 M155.52,7.676h-7.123
				c-3.359,0-6.082,2.723-6.082,6.082v30.228c0,6.859,2.47,12.807,7.341,17.678c4.883,4.852,10.838,7.306,17.713,7.306
				c6.82,0,12.759-2.449,17.65-7.279c4.921-4.921,7.403-10.869,7.403-17.705c0-6.708-2.376-12.608-7.061-17.534
				c-4.778-4.994-10.628-7.519-17.401-7.519c-2.216,0-4.338,0.272-6.357,0.813v-5.988C161.602,10.399,158.879,7.676,155.52,7.676
				L155.52,7.676z M167.368,49.752c-1.646,0-2.902-0.522-4.073-1.693c-1.171-1.171-1.693-2.427-1.693-4.072
				c0-1.622,0.522-2.867,1.693-4.038c1.195-1.195,2.451-1.728,4.073-1.728c1.597,0,2.842,0.533,4.038,1.728
				c1.194,1.194,1.727,2.44,1.727,4.037c0,1.621-0.533,2.877-1.728,4.073C170.235,49.23,168.99,49.752,167.368,49.752
				L167.368,49.752z"/>
			<path fill="#FFFFFF" d="M208.506,25.016c3.844,0,7.354,1.066,10.528,3.197c3.173,2.131,5.547,4.992,7.123,8.582l-25.121,16.33
				c2.246,1.806,4.771,2.71,7.573,2.71c3.382,0,6.173-1.204,8.374-3.613c2.224-2.432,3.348-5.339,3.37-8.721h7.192
				c-0.023,5.351-1.853,9.925-5.49,13.724c-3.613,3.776-8.095,5.664-13.447,5.664c-5.281,0-9.775-1.818-13.481-5.455
				c-3.705-3.636-5.558-8.095-5.558-13.376c0-5.235,1.841-9.717,5.524-13.447C198.777,26.881,203.247,25.016,208.506,25.016
				 M197.179,47.114l18.902-12.265c-2.27-1.806-4.795-2.71-7.574-2.71c-3.289,0-6.081,1.17-8.374,3.509
				c-2.293,2.34-3.439,5.142-3.439,8.408C196.693,44.983,196.855,46.002,197.179,47.114 M208.506,18.933
				c-6.92,0-12.889,2.491-17.74,7.403c-4.83,4.891-7.279,10.853-7.279,17.72c0,6.95,2.483,12.911,7.381,17.718
				c4.867,4.775,10.835,7.196,17.741,7.196c7.051,0,13.054-2.537,17.841-7.541c4.733-4.944,7.148-10.968,7.177-17.903
				c0.007-1.618-0.631-3.171-1.772-4.318c-0.027-0.027-0.054-0.054-0.082-0.08c0.618-1.489,0.641-3.211-0.048-4.779
				c-2.041-4.648-5.17-8.411-9.301-11.186C218.245,20.356,213.562,18.933,208.506,18.933L208.506,18.933z"/>
			<path fill="#FFFFFF" d="M248.881,25.016v7.123c-2.641,0-4.877,0.846-6.706,2.536c-1.853,1.668-2.78,3.787-2.78,6.358v21.264
				h-7.123V41.033c0-4.4,1.656-8.153,4.969-11.257C240.599,26.626,244.479,25.039,248.881,25.016 M248.881,18.933
				c-0.011,0-0.021,0-0.032,0c-5.965,0.031-11.27,2.187-15.769,6.406c-4.507,4.223-6.891,9.65-6.891,15.694v21.264
				c0,3.359,2.723,6.082,6.082,6.082h7.123c3.359,0,6.082-2.723,6.082-6.082V41.033c0-0.96,0.281-1.4,0.766-1.837
				c0.02-0.018,0.039-0.036,0.059-0.054c0.493-0.455,1.185-0.921,2.578-0.921c3.359,0,6.082-2.723,6.082-6.082v-7.123
				c0-1.619-0.645-3.171-1.793-4.312C252.03,19.569,250.488,18.933,248.881,18.933L248.881,18.933z"/>
			<circle fill="#FFFFFF" cx="42.339" cy="43.952" r="7.224"/>
			<circle fill="#FFFFFF" cx="123.225" cy="43.952" r="8.408"/>
			<circle fill="#FFFFFF" cx="167.368" cy="43.952" r="8.408"/>
		</g>
	</g>
	<g>
		<path fill="#1BA7DF" d="M10.044,62.297V13.758h7.089v48.538H10.044z"/>
		<path fill="#1BA7DF" d="M54.205,62.297v-4.378c-3.521,3.313-7.679,4.969-12.474,4.969c-5.096,0-9.44-1.865-13.03-5.594
			c-3.567-3.706-5.351-8.142-5.351-13.307c0-5.212,1.853-9.671,5.558-13.377c3.73-3.729,8.201-5.594,13.412-5.594
			s9.682,1.865,13.412,5.594c3.729,3.73,5.593,8.189,5.593,13.377v18.31H54.205z M54.205,43.987c0-3.219-1.17-5.999-3.509-8.339
			c-2.34-2.34-5.131-3.509-8.374-3.509s-6.034,1.17-8.374,3.509c-2.317,2.317-3.474,5.096-3.474,8.339
			c0,3.266,1.157,6.057,3.474,8.373c2.317,2.317,5.108,3.474,8.374,3.474s6.057-1.158,8.374-3.474
			C53.035,50.021,54.205,47.23,54.205,43.987z"/>
		<path fill="#1BA7DF" d="M92.424,62.297V41.033c0-2.409-0.88-4.493-2.641-6.254c-1.761-1.76-3.845-2.64-6.253-2.64
			c-2.41,0-4.494,0.88-6.255,2.64c-1.761,1.761-2.641,3.845-2.641,6.254v21.264h-7.123V41.033c0-4.239,1.61-7.968,4.83-11.188
			c3.219-3.219,6.948-4.83,11.188-4.83c4.215,0,7.933,1.61,11.153,4.83c3.243,3.243,4.865,6.972,4.865,11.188v21.264H92.424z"/>
		<path fill="#1BA7DF" d="M136.62,57.363c-3.73,3.683-8.201,5.525-13.412,5.525c-5.235,0-9.706-1.841-13.412-5.525
			c-3.705-3.706-5.558-8.165-5.558-13.376c0-5.165,1.783-9.613,5.351-13.343c3.566-3.752,7.909-5.629,13.03-5.629
			c4.817,0,8.975,1.68,12.474,5.038V13.758h7.122v30.228C142.213,49.175,140.349,53.634,136.62,57.363z M135.091,43.987
			c0-3.219-1.17-5.999-3.509-8.339c-2.34-2.34-5.131-3.509-8.374-3.509c-3.243,0-6.034,1.17-8.374,3.509
			c-2.317,2.317-3.474,5.096-3.474,8.339c0,3.266,1.157,6.057,3.474,8.373c2.317,2.317,5.108,3.474,8.374,3.474
			s6.057-1.158,8.374-3.474C133.921,50.021,135.091,47.23,135.091,43.987z"/>
		<path fill="#1BA7DF" d="M186.339,43.987c0,5.188-1.865,9.647-5.594,13.376c-3.73,3.683-8.189,5.525-13.376,5.525
			c-5.235,0-9.706-1.841-13.412-5.525c-3.706-3.706-5.56-8.165-5.56-13.376V13.758h7.123v16.295
			c3.497-3.358,7.645-5.038,12.439-5.038c5.073,0,9.404,1.876,12.994,5.629C184.544,34.42,186.339,38.868,186.339,43.987z
			 M179.216,43.987c0-3.219-1.17-5.999-3.509-8.339c-2.34-2.34-5.119-3.509-8.338-3.509c-3.243,0-6.035,1.17-8.374,3.509
			c-2.317,2.317-3.475,5.096-3.475,8.339c0,3.266,1.158,6.057,3.475,8.373c2.317,2.317,5.107,3.474,8.374,3.474
			c3.242,0,6.022-1.158,8.338-3.474C178.046,50.021,179.216,47.23,179.216,43.987z"/>
		<path fill="#1BA7DF" d="M222.056,57.224c-3.613,3.776-8.095,5.664-13.447,5.664c-5.281,0-9.775-1.818-13.481-5.455
			c-3.705-3.636-5.558-8.095-5.558-13.376c0-5.235,1.841-9.717,5.524-13.447c3.683-3.729,8.153-5.594,13.412-5.594
			c3.844,0,7.354,1.066,10.528,3.197c3.173,2.131,5.547,4.992,7.123,8.582l-25.121,16.33c2.246,1.806,4.771,2.71,7.573,2.71
			c3.382,0,6.173-1.204,8.374-3.613c2.224-2.432,3.348-5.339,3.37-8.721h7.192C227.523,48.851,225.693,53.426,222.056,57.224z
			 M208.506,32.139c-3.289,0-6.081,1.17-8.374,3.509c-2.293,2.34-3.439,5.142-3.439,8.408c0,0.927,0.162,1.945,0.486,3.057
			l18.902-12.265C213.811,33.042,211.286,32.139,208.506,32.139z"/>
		<path fill="#1BA7DF" d="M242.175,34.675c-1.853,1.668-2.78,3.787-2.78,6.358v21.264h-7.123V41.033c0-4.4,1.656-8.153,4.969-11.257
			c3.358-3.15,7.238-4.737,11.64-4.76v7.123C246.24,32.139,244.004,32.985,242.175,34.675z"/>
	</g>
</g>
</svg>
