<?xml version="1.0" encoding="utf-8"?>
<!-- Generator: Adobe Illustrator 17.0.0, SVG Export Plug-In . SVG Version: 6.00 Build 0)  -->
<!DOCTYPE svg PUBLIC "-//W3C//DTD SVG 1.1//EN" "http://www.w3.org/Graphics/SVG/1.1/DTD/svg11.dtd">
<svg version="1.1" id="Layer_1" xmlns="http://www.w3.org/2000/svg" xmlns:xlink="http://www.w3.org/1999/xlink" x="0px" y="0px"
	 width="900px" height="603px" viewBox="0 0 900 603" enable-background="new 0 0 900 603" xml:space="preserve">
<g>
	<path fill="#FCBB3F" d="M6.788-124.39l-20.429-35.438h-22.096v35.438h-12.15v-83.205h44.193c6.471,0,12.07,2.363,16.796,7.088
		c4.725,4.725,7.087,10.324,7.087,16.796c0,5.837-1.926,10.98-5.777,15.426c-3.811,4.487-8.557,7.207-14.235,8.16l20.727,35.736
		H6.788z M7.98-183.712c0-3.176-1.171-5.935-3.514-8.279c-2.303-2.302-5.023-3.454-8.159-3.454h-32.043v23.407h32.043
		c3.176,0,5.916-1.151,8.219-3.454C6.827-177.795,7.98-180.534,7.98-183.712z"/>
	<path fill="#FCBB3F" d="M78.61-133.086c-6.194,6.473-13.877,9.708-23.049,9.708c-9.053,0-16.756-3.116-23.109-9.351
		c-6.354-6.233-9.53-13.878-9.53-22.93c0-8.973,3.157-16.656,9.47-23.049c6.313-6.393,13.976-9.589,22.989-9.589
		c6.591,0,12.607,1.827,18.047,5.48c5.44,3.654,9.509,8.557,12.21,14.711l-43.062,27.993c3.851,3.097,8.179,4.646,12.984,4.646
		c5.797,0,10.581-2.064,14.354-6.195c3.811-4.169,5.737-9.152,5.777-14.95h12.329C87.98-147.44,84.844-139.598,78.61-133.086z
		 M55.382-176.088c-5.638,0-10.422,2.006-14.353,6.016c-3.931,4.011-5.897,8.815-5.897,14.414c0,1.589,0.277,3.335,0.834,5.241
		l32.4-21.025C64.474-174.539,60.147-176.088,55.382-176.088z"/>
	<path fill="#FFFFFF" d="M95.876-124.39v-83.205h12.15v83.205H95.876z"/>
	<path fill="#FFFFFF" d="M168.77-124.39v-7.505c-6.036,5.679-13.163,8.517-21.382,8.517c-8.736,0-16.181-3.196-22.335-9.589
		c-6.115-6.352-9.172-13.957-9.172-22.812c0-8.933,3.176-16.577,9.53-22.93c6.392-6.393,14.055-9.589,22.989-9.589
		s16.596,3.196,22.99,9.589c6.392,6.393,9.589,14.036,9.589,22.93v31.388H168.77z M168.77-155.778
		c0-5.518-2.005-10.283-6.016-14.294c-4.011-4.01-8.795-6.016-14.354-6.016c-5.559,0-10.344,2.006-14.354,6.016
		c-3.971,3.971-5.956,8.736-5.956,14.294c0,5.599,1.985,10.384,5.956,14.354c3.971,3.971,8.756,5.957,14.354,5.957
		c5.599,0,10.383-1.985,14.354-5.957C166.765-145.434,168.77-150.219,168.77-155.778z"/>
	<path fill="#FFFFFF" d="M231.48-124.39v-36.451c0-4.129-1.51-7.702-4.526-10.72c-3.018-3.017-6.592-4.527-10.721-4.527
		c-4.13,0-7.704,1.51-10.721,4.527c-3.017,3.018-4.526,6.591-4.526,10.72v36.451h-12.209v-36.451c0-7.266,2.759-13.659,8.279-19.178
		c5.519-5.519,11.912-8.279,19.178-8.279c7.226,0,13.599,2.76,19.118,8.279c5.558,5.56,8.338,11.952,8.338,19.178v36.451H231.48z"/>
	<path fill="#FFFFFF" d="M304.433-132.848c-6.393,6.313-14.055,9.47-22.989,9.47c-8.974,0-16.637-3.157-22.989-9.47
		c-6.354-6.352-9.53-13.996-9.53-22.93c0-8.854,3.057-16.477,9.172-22.871c6.114-6.432,13.559-9.648,22.335-9.648
		c8.258,0,15.386,2.879,21.382,8.636v-27.934h12.209v51.817C314.022-146.884,310.826-139.24,304.433-132.848z M301.813-155.778
		c0-5.518-2.005-10.283-6.016-14.294c-4.011-4.01-8.795-6.016-14.354-6.016c-5.559,0-10.344,2.006-14.354,6.016
		c-3.971,3.971-5.956,8.736-5.956,14.294c0,5.599,1.985,10.384,5.956,14.354c3.971,3.971,8.756,5.957,14.354,5.957
		c5.599,0,10.383-1.985,14.354-5.957C299.808-145.434,301.813-150.219,301.813-155.778z"/>
</g>
</svg>
