<?xml version="1.0" encoding="utf-8"?>
<!-- Generator: Adobe Illustrator 16.0.0, SVG Export Plug-In . SVG Version: 6.00 Build 0)  -->
<!DOCTYPE svg PUBLIC "-//W3C//DTD SVG 1.1//EN" "http://www.w3.org/Graphics/SVG/1.1/DTD/svg11.dtd">
<svg version="1.1" id="Layer_1" xmlns:sketch="http://www.bohemiancoding.com/sketch/ns"
	 xmlns="http://www.w3.org/2000/svg" xmlns:xlink="http://www.w3.org/1999/xlink" x="0px" y="0px" width="26.293px"
	 height="22.477px" viewBox="3.808 4.708 26.293 22.477" enable-background="new 3.808 4.708 26.293 22.477" xml:space="preserve">
<path fill="#FFFFFF" d="M28.808,23.146L18.485,6.446c-0.831-1.344-2.183-1.348-3.016,0L5.147,23.146
	c-1.116,1.805-0.303,3.257,1.808,3.257h20.044C29.109,26.403,29.919,24.945,28.808,23.146z M15.674,8.792
	c0.72-1.164,1.888-1.161,2.606,0l7.963,13.473c0.961,1.554,1.22,2.814-0.604,2.814H8.316c-1.823,0-1.568-1.256-0.605-2.814
	L15.674,8.792z"/>
<g>
	<circle fill="#FFFFFF" cx="11.931" cy="20.283" r="1.475"/>
	<circle fill="#FFFFFF" cx="16.767" cy="20.283" r="1.475"/>
	<circle fill="#FFFFFF" cx="21.372" cy="20.283" r="1.475"/>
</g>
</svg>
